Oxanium-Medium.ufo
<glyph name="numbersign" format="2">
  <advance width="672"/>
  <unicode hex="0023"/>
  <outline>
    <contour>
      <point x="50" y="183" type="line"/>
      <point x="50" y="267" type="line"/>
      <point x="178" y="267" type="line"/>
      <point x="178" y="423" type="line"/>
      <point x="50" y="423" type="line"/>
      <point x="50" y="507" type="line"/>
      <point x="178" y="507" type="line"/>
      <point x="178" y="690" type="line"/>
      <point x="267" y="690" type="line"/>
      <point x="267" y="507" type="line"/>
      <point x="406" y="507" type="line"/>
      <point x="406" y="690" type="line"/>
      <point x="495" y="690" type="line"/>
      <point x="495" y="507" type="line"/>
      <point x="622" y="507" type="line"/>
      <point x="622" y="423" type="line"/>
      <point x="495" y="423" type="line"/>
      <point x="495" y="267" type="line"/>
      <point x="622" y="267" type="line"/>
      <point x="622" y="183" type="line"/>
      <point x="495" y="183" type="line"/>
      <point x="495" y="0" type="line"/>
      <point x="406" y="0" type="line"/>
      <point x="406" y="183" type="line"/>
      <point x="267" y="183" type="line"/>
      <point x="267" y="0" type="line"/>
      <point x="178" y="0" type="line"/>
      <point x="178" y="183" type="line"/>
    </contour>
    <contour>
      <point x="267" y="267" type="line"/>
      <point x="406" y="267" type="line"/>
      <point x="406" y="423" type="line"/>
      <point x="267" y="423" type="line"/>
    </contour>
  </outline>
</glyph>
<glyph name="asterisk" format="2">
  <advance width="504"/>
  <unicode hex="002A"/>
  <outline>
    <contour>
      <point x="41" y="510" type="line"/>
      <point x="64" y="579" type="line"/>
      <point x="214" y="534" type="line"/>
      <point x="214" y="690" type="line"/>
      <point x="291" y="690" type="line"/>
      <point x="291" y="534" type="line"/>
      <point x="440" y="579" type="line"/>
      <point x="463" y="510" type="line"/>
      <point x="316" y="459" type="line"/>
      <point x="406" y="332" type="line"/>
      <point x="346" y="289" type="line"/>
      <point x="252" y="412" type="line"/>
      <point x="158" y="289" type="line"/>
      <point x="99" y="332" type="line"/>
      <point x="189" y="459" type="line"/>
    </contour>
  </outline>
</glyph>
<glyph name="period" format="2">
  <advance width="265"/>
  <unicode hex="002E"/>
  <outline>
    <contour>
      <point x="75" y="0" type="line"/>
      <point x="75" y="120" type="line"/>
      <point x="190" y="120" type="line"/>
      <point x="190" y="0" type="line"/>
    </contour>
  </outline>
</glyph>
<glyph name="slash" format="2">
  <advance width="404"/>
  <unicode hex="002F"/>
  <outline>
    <contour>
      <point x="20" y="-22" type="line"/>
      <point x="301" y="742" type="line"/>
      <point x="384" y="712" type="line"/>
      <point x="103" y="-52" type="line"/>
    </contour>
  </outline>
</glyph>
<glyph name="zero" format="2">
  <advance width="578"/>
  <unicode hex="0030"/>
  <outline>
    <contour>
      <point x="60" y="158" type="qcurve" smooth="yes"/>
      <point x="60" y="532" type="line" smooth="yes"/>
      <point x="60" y="690"/>
      <point x="218" y="690" type="qcurve" smooth="yes"/>
      <point x="360" y="690" type="line" smooth="yes"/>
      <point x="518" y="690"/>
      <point x="518" y="532" type="qcurve" smooth="yes"/>
      <point x="518" y="158" type="line" smooth="yes"/>
      <point x="518" y="0"/>
      <point x="360" y="0" type="qcurve" smooth="yes"/>
      <point x="218" y="0" type="line" smooth="yes"/>
      <point x="60" y="0"/>
    </contour>
    <contour>
      <point x="162" y="149" type="line" smooth="yes"/>
      <point x="162" y="92"/>
      <point x="219" y="92" type="qcurve" smooth="yes"/>
      <point x="359" y="92" type="line" smooth="yes"/>
      <point x="416" y="92"/>
      <point x="416" y="149" type="qcurve" smooth="yes"/>
      <point x="416" y="541" type="line" smooth="yes"/>
      <point x="416" y="598"/>
      <point x="359" y="598" type="qcurve" smooth="yes"/>
      <point x="219" y="598" type="line" smooth="yes"/>
      <point x="162" y="598"/>
      <point x="162" y="541" type="qcurve" smooth="yes"/>
    </contour>
  </outline>
</glyph>
<glyph name="one" format="2">
  <advance width="578"/>
  <unicode hex="0031"/>
  <outline>
    <contour>
      <point x="88" y="0" type="line"/>
      <point x="88" y="92" type="line"/>
      <point x="254" y="92" type="line"/>
      <point x="254" y="598" type="line"/>
      <point x="120" y="598" type="line"/>
      <point x="120" y="650" type="line"/>
      <point x="172" y="690" type="line"/>
      <point x="356" y="690" type="line"/>
      <point x="356" y="92" type="line"/>
      <point x="506" y="92" type="line"/>
      <point x="506" y="0" type="line"/>
    </contour>
  </outline>
</glyph>
<glyph name="three" format="2">
  <advance width="578"/>
  <unicode hex="0033"/>
  <outline>
    <contour>
      <point x="70" y="40" type="line"/>
      <point x="70" y="92" type="line"/>
      <point x="359" y="92" type="line" smooth="yes"/>
      <point x="416" y="92"/>
      <point x="416" y="149" type="qcurve" smooth="yes"/>
      <point x="416" y="257" type="line" smooth="yes"/>
      <point x="416" y="314"/>
      <point x="359" y="314" type="qcurve" smooth="yes"/>
      <point x="144" y="314" type="line"/>
      <point x="144" y="406" type="line"/>
      <point x="359" y="406" type="line" smooth="yes"/>
      <point x="416" y="406"/>
      <point x="416" y="463" type="qcurve" smooth="yes"/>
      <point x="416" y="541" type="line" smooth="yes"/>
      <point x="416" y="598"/>
      <point x="359" y="598" type="qcurve" smooth="yes"/>
      <point x="80" y="598" type="line"/>
      <point x="80" y="650" type="line"/>
      <point x="132" y="690" type="line"/>
      <point x="360" y="690" type="line" smooth="yes"/>
      <point x="518" y="690"/>
      <point x="518" y="532" type="qcurve" smooth="yes"/>
      <point x="518" y="462" type="line" smooth="yes"/>
      <point x="518" y="422"/>
      <point x="493" y="397" type="qcurve" smooth="yes"/>
      <point x="458" y="362" type="line"/>
      <point x="493" y="327" type="line" smooth="yes"/>
      <point x="518" y="302"/>
      <point x="518" y="262" type="qcurve" smooth="yes"/>
      <point x="518" y="158" type="line" smooth="yes"/>
      <point x="518" y="0"/>
      <point x="360" y="0" type="qcurve" smooth="yes"/>
      <point x="122" y="0" type="line"/>
    </contour>
  </outline>
</glyph>
<glyph name="nine" format="2">
  <advance width="578"/>
  <unicode hex="0039"/>
  <outline>
    <contour>
      <point x="60" y="431" type="qcurve" smooth="yes"/>
      <point x="60" y="532" type="line" smooth="yes"/>
      <point x="60" y="690"/>
      <point x="218" y="690" type="qcurve" smooth="yes"/>
      <point x="360" y="690" type="line" smooth="yes"/>
      <point x="518" y="690"/>
      <point x="518" y="532" type="qcurve" smooth="yes"/>
      <point x="518" y="189" type="line" smooth="yes"/>
      <point x="518" y="0"/>
      <point x="328" y="0" type="qcurve" smooth="yes"/>
      <point x="142" y="0" type="line"/>
      <point x="90" y="40" type="line"/>
      <point x="90" y="92" type="line"/>
      <point x="332" y="92" type="line" smooth="yes"/>
      <point x="416" y="92"/>
      <point x="416" y="176" type="qcurve" smooth="yes"/>
      <point x="416" y="274" type="line"/>
      <point x="218" y="274" type="line" smooth="yes"/>
      <point x="60" y="274"/>
    </contour>
    <contour>
      <point x="162" y="423" type="line" smooth="yes"/>
      <point x="162" y="366"/>
      <point x="219" y="366" type="qcurve" smooth="yes"/>
      <point x="416" y="366" type="line"/>
      <point x="416" y="541" type="line" smooth="yes"/>
      <point x="416" y="598"/>
      <point x="359" y="598" type="qcurve" smooth="yes"/>
      <point x="219" y="598" type="line" smooth="yes"/>
      <point x="162" y="598"/>
      <point x="162" y="541" type="qcurve" smooth="yes"/>
    </contour>
  </outline>
</glyph>
<glyph name="greater" format="2">
  <advance width="578"/>
  <unicode hex="003E"/>
  <outline>
    <contour>
      <point x="61" y="164" type="line"/>
      <point x="426" y="335" type="line"/>
      <point x="61" y="506" type="line"/>
      <point x="97" y="581" type="line"/>
      <point x="514" y="382" type="line"/>
      <point x="514" y="288" type="line"/>
      <point x="97" y="89" type="line"/>
    </contour>
  </outline>
</glyph>
<glyph name="at" format="2">
  <advance width="802"/>
  <unicode hex="0040"/>
  <outline>
    <contour>
      <point x="88" y="10" type="qcurve" smooth="yes"/>
      <point x="88" y="540" type="line" smooth="yes"/>
      <point x="88" y="690"/>
      <point x="237" y="690" type="qcurve" smooth="yes"/>
      <point x="715" y="690" type="line"/>
      <point x="715" y="60" type="line"/>
      <point x="461" y="60" type="line" smooth="yes"/>
      <point x="308" y="60"/>
      <point x="308" y="214" type="qcurve" smooth="yes"/>
      <point x="308" y="336" type="line" smooth="yes"/>
      <point x="308" y="490"/>
      <point x="461" y="490" type="qcurve" smooth="yes"/>
      <point x="626" y="490" type="line"/>
      <point x="626" y="613" type="line"/>
      <point x="238" y="613" type="line" smooth="yes"/>
      <point x="177" y="613"/>
      <point x="177" y="551" type="qcurve" smooth="yes"/>
      <point x="177" y="-1" type="line" smooth="yes"/>
      <point x="177" y="-63"/>
      <point x="238" y="-63" type="qcurve" smooth="yes"/>
      <point x="695" y="-63" type="line"/>
      <point x="695" y="-106" type="line"/>
      <point x="649" y="-140" type="line"/>
      <point x="237" y="-140" type="line" smooth="yes"/>
      <point x="88" y="-140"/>
    </contour>
    <contour>
      <point x="405" y="204" type="line" smooth="yes"/>
      <point x="405" y="145"/>
      <point x="464" y="145" type="qcurve" smooth="yes"/>
      <point x="617" y="145" type="line"/>
      <point x="617" y="405" type="line"/>
      <point x="464" y="405" type="line" smooth="yes"/>
      <point x="405" y="405"/>
      <point x="405" y="346" type="qcurve" smooth="yes"/>
    </contour>
  </outline>
</glyph>
<glyph name="A" format="2">
  <advance width="641"/>
  <unicode hex="0041"/>
  <outline>
    <contour>
      <point x="19" y="21" type="line"/>
      <point x="239" y="690" type="line"/>
      <point x="402" y="690" type="line"/>
      <point x="621" y="21" type="line"/>
      <point x="608" y="0" type="line"/>
      <point x="523" y="0" type="line"/>
      <point x="471" y="164" type="line"/>
      <point x="170" y="164" type="line"/>
      <point x="118" y="0" type="line"/>
      <point x="33" y="0" type="line"/>
    </contour>
    <contour>
      <point x="199" y="256" type="line"/>
      <point x="442" y="256" type="line"/>
      <point x="331" y="598" type="line"/>
      <point x="310" y="598" type="line"/>
    </contour>
  </outline>
</glyph>
<glyph name="B" format="2">
  <advance width="646"/>
  <unicode hex="0042"/>
  <outline>
    <contour>
      <point x="88" y="0" type="line"/>
      <point x="88" y="690" type="line"/>
      <point x="407" y="690" type="line" smooth="yes"/>
      <point x="565" y="690"/>
      <point x="565" y="532" type="qcurve" smooth="yes"/>
      <point x="565" y="466" type="line" smooth="yes"/>
      <point x="565" y="432"/>
      <point x="545" y="408" type="qcurve" smooth="yes"/>
      <point x="510" y="366" type="line"/>
      <point x="552" y="331" type="line" smooth="yes"/>
      <point x="585" y="304"/>
      <point x="585" y="251" type="qcurve" smooth="yes"/>
      <point x="585" y="158" type="line" smooth="yes"/>
      <point x="585" y="0"/>
      <point x="427" y="0" type="qcurve" smooth="yes"/>
    </contour>
    <contour>
      <point x="190" y="92" type="line"/>
      <point x="426" y="92" type="line" smooth="yes"/>
      <point x="483" y="92"/>
      <point x="483" y="149" type="qcurve" smooth="yes"/>
      <point x="483" y="257" type="line" smooth="yes"/>
      <point x="483" y="314"/>
      <point x="426" y="314" type="qcurve" smooth="yes"/>
      <point x="190" y="314" type="line"/>
    </contour>
    <contour>
      <point x="190" y="406" type="line"/>
      <point x="406" y="406" type="line" smooth="yes"/>
      <point x="463" y="406"/>
      <point x="463" y="463" type="qcurve" smooth="yes"/>
      <point x="463" y="541" type="line" smooth="yes"/>
      <point x="463" y="598"/>
      <point x="406" y="598" type="qcurve" smooth="yes"/>
      <point x="190" y="598" type="line"/>
    </contour>
  </outline>
</glyph>
<glyph name="C" format="2">
  <advance width="614"/>
  <unicode hex="0043"/>
  <outline>
    <contour>
      <point x="78" y="158" type="qcurve" smooth="yes"/>
      <point x="78" y="532" type="line" smooth="yes"/>
      <point x="78" y="690"/>
      <point x="235" y="690" type="qcurve" smooth="yes"/>
      <point x="513" y="690" type="line"/>
      <point x="564" y="650" type="line"/>
      <point x="564" y="598" type="line"/>
      <point x="236" y="598" type="line" smooth="yes"/>
      <point x="180" y="598"/>
      <point x="180" y="541" type="qcurve" smooth="yes"/>
      <point x="180" y="149" type="line" smooth="yes"/>
      <point x="180" y="92"/>
      <point x="236" y="92" type="qcurve" smooth="yes"/>
      <point x="564" y="92" type="line"/>
      <point x="564" y="40" type="line"/>
      <point x="513" y="0" type="line"/>
      <point x="235" y="0" type="line" smooth="yes"/>
      <point x="78" y="0"/>
    </contour>
  </outline>
</glyph>
<glyph name="D" format="2">
  <advance width="682"/>
  <unicode hex="0044"/>
  <outline>
    <contour>
      <point x="88" y="0" type="line"/>
      <point x="88" y="690" type="line"/>
      <point x="355" y="690" type="line" smooth="yes"/>
      <point x="615" y="690"/>
      <point x="615" y="430" type="qcurve" smooth="yes"/>
      <point x="615" y="260" type="line" smooth="yes"/>
      <point x="615" y="0"/>
      <point x="355" y="0" type="qcurve" smooth="yes"/>
    </contour>
    <contour>
      <point x="190" y="92" type="line"/>
      <point x="361" y="92" type="line" smooth="yes"/>
      <point x="513" y="92"/>
      <point x="513" y="244" type="qcurve" smooth="yes"/>
      <point x="513" y="446" type="line" smooth="yes"/>
      <point x="513" y="598"/>
      <point x="361" y="598" type="qcurve" smooth="yes"/>
      <point x="190" y="598" type="line"/>
    </contour>
  </outline>
</glyph>
<glyph name="H" format="2">
  <advance width="702"/>
  <unicode hex="0048"/>
  <outline>
    <contour>
      <point x="88" y="0" type="line"/>
      <point x="88" y="690" type="line"/>
      <point x="190" y="690" type="line"/>
      <point x="190" y="406" type="line"/>
      <point x="513" y="406" type="line"/>
      <point x="513" y="690" type="line"/>
      <point x="615" y="690" type="line"/>
      <point x="615" y="0" type="line"/>
      <point x="513" y="0" type="line"/>
      <point x="513" y="314" type="line"/>
      <point x="190" y="314" type="line"/>
      <point x="190" y="0" type="line"/>
    </contour>
  </outline>
</glyph>
<glyph name="J" format="2">
  <advance width="606"/>
  <unicode hex="004A"/>
  <outline>
    <contour>
      <point x="58" y="158" type="qcurve" smooth="yes"/>
      <point x="58" y="272" type="line"/>
      <point x="160" y="272" type="line"/>
      <point x="160" y="149" type="line" smooth="yes"/>
      <point x="160" y="92"/>
      <point x="216" y="92" type="qcurve" smooth="yes"/>
      <point x="366" y="92" type="line" smooth="yes"/>
      <point x="423" y="92"/>
      <point x="423" y="149" type="qcurve" smooth="yes"/>
      <point x="423" y="598" type="line"/>
      <point x="208" y="598" type="line"/>
      <point x="208" y="690" type="line"/>
      <point x="525" y="690" type="line"/>
      <point x="525" y="158" type="line" smooth="yes"/>
      <point x="525" y="0"/>
      <point x="367" y="0" type="qcurve" smooth="yes"/>
      <point x="215" y="0" type="line" smooth="yes"/>
      <point x="58" y="0"/>
    </contour>
  </outline>
</glyph>
<glyph name="L" format="2">
  <advance width="538"/>
  <unicode hex="004C"/>
  <outline>
    <contour>
      <point x="88" y="0" type="line"/>
      <point x="88" y="690" type="line"/>
      <point x="190" y="690" type="line"/>
      <point x="190" y="92" type="line"/>
      <point x="514" y="92" type="line"/>
      <point x="514" y="0" type="line"/>
    </contour>
  </outline>
</glyph>
<glyph name="N" format="2">
  <advance width="725"/>
  <unicode hex="004E"/>
  <outline>
    <contour>
      <point x="88" y="0" type="line"/>
      <point x="88" y="690" type="line"/>
      <point x="200" y="690" type="line"/>
      <point x="536" y="162" type="line"/>
      <point x="536" y="690" type="line"/>
      <point x="638" y="690" type="line"/>
      <point x="638" y="0" type="line"/>
      <point x="526" y="0" type="line"/>
      <point x="190" y="528" type="line"/>
      <point x="190" y="0" type="line"/>
    </contour>
  </outline>
</glyph>
<glyph name="R" format="2">
  <advance width="642"/>
  <unicode hex="0052"/>
  <outline>
    <contour>
      <point x="88" y="0" type="line"/>
      <point x="88" y="690" type="line"/>
      <point x="417" y="690" type="line" smooth="yes"/>
      <point x="575" y="690"/>
      <point x="575" y="532" type="qcurve" smooth="yes"/>
      <point x="575" y="421" type="line" smooth="yes"/>
      <point x="575" y="293"/>
      <point x="469" y="269" type="qcurve"/>
      <point x="595" y="23" type="line"/>
      <point x="582" y="0" type="line"/>
      <point x="495" y="0" type="line"/>
      <point x="361" y="264" type="line"/>
      <point x="190" y="264" type="line"/>
      <point x="190" y="0" type="line"/>
    </contour>
    <contour>
      <point x="190" y="356" type="line"/>
      <point x="416" y="356" type="line" smooth="yes"/>
      <point x="473" y="356"/>
      <point x="473" y="413" type="qcurve" smooth="yes"/>
      <point x="473" y="541" type="line" smooth="yes"/>
      <point x="473" y="598"/>
      <point x="416" y="598" type="qcurve" smooth="yes"/>
      <point x="190" y="598" type="line"/>
    </contour>
  </outline>
</glyph>
<glyph name="U" format="2">
  <advance width="690"/>
  <unicode hex="0055"/>
  <outline>
    <contour>
      <point x="82" y="158" type="qcurve" smooth="yes"/>
      <point x="82" y="690" type="line"/>
      <point x="184" y="690" type="line"/>
      <point x="184" y="149" type="line" smooth="yes"/>
      <point x="184" y="92"/>
      <point x="240" y="92" type="qcurve" smooth="yes"/>
      <point x="450" y="92" type="line" smooth="yes"/>
      <point x="507" y="92"/>
      <point x="507" y="149" type="qcurve" smooth="yes"/>
      <point x="507" y="690" type="line"/>
      <point x="609" y="690" type="line"/>
      <point x="609" y="158" type="line" smooth="yes"/>
      <point x="609" y="0"/>
      <point x="451" y="0" type="qcurve" smooth="yes"/>
      <point x="239" y="0" type="line" smooth="yes"/>
      <point x="82" y="0"/>
    </contour>
  </outline>
</glyph>
<glyph name="V" format="2">
  <advance width="631"/>
  <unicode hex="0056"/>
  <outline>
    <contour>
      <point x="19" y="669" type="line"/>
      <point x="33" y="690" type="line"/>
      <point x="121" y="690" type="line"/>
      <point x="305" y="92" type="line"/>
      <point x="326" y="92" type="line"/>
      <point x="510" y="690" type="line"/>
      <point x="598" y="690" type="line"/>
      <point x="611" y="669" type="line"/>
      <point x="400" y="0" type="line"/>
      <point x="231" y="0" type="line"/>
    </contour>
  </outline>
</glyph>
<glyph name="X" format="2">
  <advance width="621"/>
  <unicode hex="0058"/>
  <outline>
    <contour>
      <point x="29" y="22" type="line"/>
      <point x="254" y="355" type="line"/>
      <point x="42" y="668" type="line"/>
      <point x="53" y="690" type="line"/>
      <point x="142" y="690" type="line"/>
      <point x="310" y="435" type="line"/>
      <point x="479" y="690" type="line"/>
      <point x="568" y="690" type="line"/>
      <point x="578" y="668" type="line"/>
      <point x="367" y="355" type="line"/>
      <point x="591" y="22" type="line"/>
      <point x="581" y="0" type="line"/>
      <point x="492" y="0" type="line"/>
      <point x="310" y="275" type="line"/>
      <point x="129" y="0" type="line"/>
      <point x="40" y="0" type="line"/>
    </contour>
  </outline>
</glyph>
<glyph name="bracketleft" format="2">
  <advance width="353"/>
  <unicode hex="005B"/>
  <outline>
    <contour>
      <point x="88" y="-180" type="line"/>
      <point x="88" y="760" type="line"/>
      <point x="323" y="760" type="line"/>
      <point x="323" y="675" type="line"/>
      <point x="185" y="675" type="line"/>
      <point x="185" y="-95" type="line"/>
      <point x="323" y="-95" type="line"/>
      <point x="323" y="-180" type="line"/>
    </contour>
  </outline>
</glyph>
<glyph name="backslash" format="2">
  <advance width="404"/>
  <unicode hex="005C"/>
  <outline>
    <contour>
      <point x="20" y="712" type="line"/>
      <point x="103" y="742" type="line"/>
      <point x="384" y="-22" type="line"/>
      <point x="301" y="-52" type="line"/>
    </contour>
  </outline>
</glyph>
<glyph name="bracketright" format="2">
  <advance width="353"/>
  <unicode hex="005D"/>
  <outline>
    <contour>
      <point x="30" y="-95" type="line"/>
      <point x="168" y="-95" type="line"/>
      <point x="168" y="675" type="line"/>
      <point x="30" y="675" type="line"/>
      <point x="30" y="760" type="line"/>
      <point x="265" y="760" type="line"/>
      <point x="265" y="-180" type="line"/>
      <point x="30" y="-180" type="line"/>
    </contour>
  </outline>
</glyph>
<glyph name="underscore" format="2">
  <advance width="580"/>
  <unicode hex="005F"/>
  <outline>
    <contour>
      <point x="40" y="-116" type="line"/>
      <point x="540" y="-116" type="line"/>
      <point x="540" y="-200" type="line"/>
      <point x="40" y="-200" type="line"/>
    </contour>
  </outline>
</glyph>
<glyph name="e" format="2">
  <advance width="576"/>
  <unicode hex="0065"/>
  <outline>
    <contour>
      <point x="70" y="154" type="qcurve" smooth="yes"/>
      <point x="70" y="369" type="line" smooth="yes"/>
      <point x="70" y="522"/>
      <point x="223" y="522" type="qcurve" smooth="yes"/>
      <point x="353" y="522" type="line" smooth="yes"/>
      <point x="507" y="522"/>
      <point x="507" y="369" type="qcurve" smooth="yes"/>
      <point x="507" y="221" type="line"/>
      <point x="167" y="221" type="line"/>
      <point x="167" y="144" type="line" smooth="yes"/>
      <point x="167" y="85"/>
      <point x="226" y="85" type="qcurve" smooth="yes"/>
      <point x="487" y="85" type="line"/>
      <point x="487" y="34" type="line"/>
      <point x="441" y="0" type="line"/>
      <point x="223" y="0" type="line" smooth="yes"/>
      <point x="70" y="0"/>
    </contour>
    <contour>
      <point x="167" y="303" type="line"/>
      <point x="409" y="303" type="line"/>
      <point x="409" y="379" type="line" smooth="yes"/>
      <point x="409" y="437"/>
      <point x="351" y="437" type="qcurve" smooth="yes"/>
      <point x="226" y="437" type="line" smooth="yes"/>
      <point x="167" y="437"/>
      <point x="167" y="379" type="qcurve" smooth="yes"/>
    </contour>
  </outline>
</glyph>
<glyph name="f" format="2">
  <advance width="390"/>
  <unicode hex="0066"/>
  <outline>
    <contour>
      <point x="78" y="0" type="line"/>
      <point x="78" y="586" type="line" smooth="yes"/>
      <point x="78" y="740"/>
      <point x="231" y="740" type="qcurve" smooth="yes"/>
      <point x="324" y="740" type="line"/>
      <point x="370" y="706" type="line"/>
      <point x="370" y="655" type="line"/>
      <point x="234" y="655" type="line" smooth="yes"/>
      <point x="175" y="655"/>
      <point x="175" y="596" type="qcurve" smooth="yes"/>
      <point x="175" y="522" type="line"/>
      <point x="360" y="522" type="line"/>
      <point x="360" y="437" type="line"/>
      <point x="175" y="437" type="line"/>
      <point x="175" y="0" type="line"/>
    </contour>
  </outline>
</glyph>
<glyph name="i" format="2">
  <advance width="253"/>
  <unicode hex="0069"/>
  <outline>
    <contour>
      <point x="76" y="614" type="line"/>
      <point x="76" y="719" type="line"/>
      <point x="177" y="719" type="line"/>
      <point x="177" y="614" type="line"/>
    </contour>
    <contour>
      <point x="78" y="0" type="line"/>
      <point x="78" y="522" type="line"/>
      <point x="175" y="522" type="line"/>
      <point x="175" y="0" type="line"/>
    </contour>
  </outline>
</glyph>
<glyph name="j" format="2">
  <advance width="253"/>
  <unicode hex="006A"/>
  <outline>
    <contour>
      <point x="-9" y="-124" type="line"/>
      <point x="78" y="-120"/>
      <point x="78" y="-36" type="qcurve" smooth="yes"/>
      <point x="78" y="522" type="line"/>
      <point x="175" y="522" type="line"/>
      <point x="175" y="-25" type="line" smooth="yes"/>
      <point x="175" y="-209"/>
      <point x="-9" y="-209" type="qcurve"/>
    </contour>
    <contour>
      <point x="76" y="614" type="line"/>
      <point x="76" y="719" type="line"/>
      <point x="177" y="719" type="line"/>
      <point x="177" y="614" type="line"/>
    </contour>
  </outline>
</glyph>
<glyph name="k" format="2">
  <advance width="544"/>
  <unicode hex="006B"/>
  <outline>
    <contour>
      <point x="78" y="0" type="line"/>
      <point x="78" y="740" type="line"/>
      <point x="175" y="740" type="line"/>
      <point x="175" y="277" type="line"/>
      <point x="399" y="522" type="line"/>
      <point x="494" y="522" type="line"/>
      <point x="502" y="505" type="line"/>
      <point x="317" y="304" type="line"/>
      <point x="516" y="17" type="line"/>
      <point x="508" y="0" type="line"/>
      <point x="413" y="0" type="line"/>
      <point x="253" y="234" type="line"/>
      <point x="175" y="149" type="line"/>
      <point x="175" y="0" type="line"/>
    </contour>
  </outline>
</glyph>
<glyph name="l" format="2">
  <advance width="275"/>
  <unicode hex="006C"/>
  <outline>
    <contour>
      <point x="74" y="157" type="qcurve" smooth="yes"/>
      <point x="74" y="740" type="line"/>
      <point x="171" y="740" type="line"/>
      <point x="171" y="147" type="line" smooth="yes"/>
      <point x="171" y="81"/>
      <point x="239" y="76" type="qcurve"/>
      <point x="239" y="-9" type="line"/>
      <point x="74" y="-9"/>
    </contour>
  </outline>
</glyph>
<glyph name="p" format="2">
  <advance width="584"/>
  <unicode hex="0070"/>
  <outline>
    <contour>
      <point x="78" y="-200" type="line"/>
      <point x="78" y="522" type="line"/>
      <point x="361" y="522" type="line" smooth="yes"/>
      <point x="515" y="522"/>
      <point x="515" y="369" type="qcurve" smooth="yes"/>
      <point x="515" y="154" type="line" smooth="yes"/>
      <point x="515" y="0"/>
      <point x="361" y="0" type="qcurve" smooth="yes"/>
      <point x="175" y="0" type="line"/>
      <point x="175" y="-200" type="line"/>
    </contour>
    <contour>
      <point x="175" y="85" type="line"/>
      <point x="359" y="85" type="line" smooth="yes"/>
      <point x="417" y="85"/>
      <point x="417" y="144" type="qcurve" smooth="yes"/>
      <point x="417" y="379" type="line" smooth="yes"/>
      <point x="417" y="437"/>
      <point x="359" y="437" type="qcurve" smooth="yes"/>
      <point x="175" y="437" type="line"/>
    </contour>
  </outline>
</glyph>
<glyph name="r" format="2">
  <advance width="382"/>
  <unicode hex="0072"/>
  <outline>
    <contour>
      <point x="74" y="0" type="line"/>
      <point x="74" y="460" type="line"/>
      <point x="109" y="522"/>
      <point x="207" y="522" type="qcurve" smooth="yes"/>
      <point x="310" y="522" type="line"/>
      <point x="356" y="488" type="line"/>
      <point x="356" y="437" type="line"/>
      <point x="217" y="437" type="line" smooth="yes"/>
      <point x="185" y="437"/>
      <point x="171" y="421" type="qcurve"/>
      <point x="171" y="0" type="line"/>
    </contour>
  </outline>
</glyph>
<glyph name="s" format="2">
  <advance width="502"/>
  <unicode hex="0073"/>
  <outline>
    <contour>
      <point x="58" y="34" type="line"/>
      <point x="58" y="85" type="line"/>
      <point x="288" y="85" type="line" smooth="yes"/>
      <point x="347" y="85"/>
      <point x="347" y="145" type="qcurve" smooth="yes"/>
      <point x="347" y="206"/>
      <point x="296" y="215" type="qcurve" smooth="yes"/>
      <point x="180" y="234" type="line" smooth="yes"/>
      <point x="58" y="254"/>
      <point x="58" y="370" type="qcurve" smooth="yes"/>
      <point x="58" y="522"/>
      <point x="212" y="522" type="qcurve" smooth="yes"/>
      <point x="374" y="522" type="line"/>
      <point x="420" y="488" type="line"/>
      <point x="420" y="437" type="line"/>
      <point x="214" y="437" type="line" smooth="yes"/>
      <point x="155" y="437"/>
      <point x="155" y="377" type="qcurve" smooth="yes"/>
      <point x="155" y="323"/>
      <point x="206" y="315" type="qcurve" smooth="yes"/>
      <point x="323" y="295" type="line" smooth="yes"/>
      <point x="444" y="275"/>
      <point x="444" y="152" type="qcurve" smooth="yes"/>
      <point x="444" y="0"/>
      <point x="291" y="0" type="qcurve" smooth="yes"/>
      <point x="104" y="0" type="line"/>
    </contour>
  </outline>
</glyph>
<glyph name="u" format="2">
  <advance width="588"/>
  <unicode hex="0075"/>
  <outline>
    <contour>
      <point x="74" y="154" type="qcurve" smooth="yes"/>
      <point x="74" y="522" type="line"/>
      <point x="171" y="522" type="line"/>
      <point x="171" y="144" type="line" smooth="yes"/>
      <point x="171" y="85"/>
      <point x="230" y="85" type="qcurve" smooth="yes"/>
      <point x="413" y="85" type="line"/>
      <point x="413" y="522" type="line"/>
      <point x="511" y="522" type="line"/>
      <point x="511" y="0" type="line"/>
      <point x="227" y="0" type="line" smooth="yes"/>
      <point x="74" y="0"/>
    </contour>
  </outline>
</glyph>
<glyph name="v" format="2">
  <advance width="531"/>
  <unicode hex="0076"/>
  <outline>
    <contour>
      <point x="19" y="506" type="line"/>
      <point x="30" y="522" type="line"/>
      <point x="114" y="522" type="line"/>
      <point x="257" y="85" type="line"/>
      <point x="274" y="85" type="line"/>
      <point x="417" y="522" type="line"/>
      <point x="501" y="522" type="line"/>
      <point x="511" y="506" type="line"/>
      <point x="341" y="0" type="line"/>
      <point x="190" y="0" type="line"/>
    </contour>
  </outline>
</glyph>
<glyph name="w" format="2">
  <advance width="803"/>
  <unicode hex="0077"/>
  <outline>
    <contour>
      <point x="23" y="506" type="line"/>
      <point x="35" y="522" type="line"/>
      <point x="117" y="522" type="line"/>
      <point x="214" y="85" type="line"/>
      <point x="227" y="85" type="line"/>
      <point x="343" y="522" type="line"/>
      <point x="460" y="522" type="line"/>
      <point x="576" y="85" type="line"/>
      <point x="589" y="85" type="line"/>
      <point x="686" y="522" type="line"/>
      <point x="768" y="522" type="line"/>
      <point x="779" y="506" type="line"/>
      <point x="662" y="0" type="line"/>
      <point x="511" y="0" type="line"/>
      <point x="401" y="418" type="line"/>
      <point x="292" y="0" type="line"/>
      <point x="141" y="0" type="line"/>
    </contour>
  </outline>
</glyph>
<glyph name="x" format="2">
  <advance width="531"/>
  <unicode hex="0078"/>
  <outline>
    <contour>
      <point x="29" y="17" type="line"/>
      <point x="210" y="266" type="line"/>
      <point x="36" y="505" type="line"/>
      <point x="44" y="522" type="line"/>
      <point x="134" y="522" type="line"/>
      <point x="265" y="337" type="line"/>
      <point x="397" y="522" type="line"/>
      <point x="487" y="522" type="line"/>
      <point x="495" y="505" type="line"/>
      <point x="321" y="266" type="line"/>
      <point x="501" y="17" type="line"/>
      <point x="493" y="0" type="line"/>
      <point x="403" y="0" type="line"/>
      <point x="265" y="194" type="line"/>
      <point x="128" y="0" type="line"/>
      <point x="38" y="0" type="line"/>
    </contour>
  </outline>
</glyph>
<glyph name="y" format="2">
  <advance width="531"/>
  <unicode hex="0079"/>
  <outline>
    <contour>
      <point x="19" y="506" type="line"/>
      <point x="30" y="522" type="line"/>
      <point x="114" y="522" type="line"/>
      <point x="257" y="85" type="line"/>
      <point x="274" y="85" type="line"/>
      <point x="417" y="522" type="line"/>
      <point x="501" y="522" type="line"/>
      <point x="511" y="506" type="line"/>
      <point x="274" y="-200" type="line"/>
      <point x="190" y="-200" type="line"/>
      <point x="180" y="-184" type="line"/>
      <point x="245" y="0" type="line"/>
      <point x="190" y="0" type="line"/>
    </contour>
  </outline>
</glyph>
<glyph name="bar" format="2">
  <advance width="285"/>
  <unicode hex="007C"/>
  <outline>
    <contour>
      <point x="98" y="-200" type="line"/>
      <point x="98" y="740" type="line"/>
      <point x="187" y="740" type="line"/>
      <point x="187" y="-200" type="line"/>
    </contour>
  </outline>
</glyph>
<glyph name="braceright" format="2">
  <advance width="392"/>
  <unicode hex="007D"/>
  <outline>
    <contour>
      <point x="30" y="-95" type="line"/>
      <point x="99" y="-95" type="line" smooth="yes"/>
      <point x="158" y="-95"/>
      <point x="158" y="-36" type="qcurve" smooth="yes"/>
      <point x="158" y="201" type="line"/>
      <point x="245" y="288" type="line"/>
      <point x="158" y="376" type="line"/>
      <point x="158" y="616" type="line" smooth="yes"/>
      <point x="158" y="675"/>
      <point x="99" y="675" type="qcurve" smooth="yes"/>
      <point x="30" y="675" type="line"/>
      <point x="30" y="760" type="line"/>
      <point x="101" y="760" type="line" smooth="yes"/>
      <point x="255" y="760"/>
      <point x="255" y="606" type="qcurve" smooth="yes"/>
      <point x="255" y="400" type="line"/>
      <point x="342" y="313" type="line"/>
      <point x="342" y="264" type="line"/>
      <point x="255" y="177" type="line"/>
      <point x="255" y="-26" type="line" smooth="yes"/>
      <point x="255" y="-180"/>
      <point x="101" y="-180" type="qcurve" smooth="yes"/>
      <point x="30" y="-180" type="line"/>
    </contour>
  </outline>
</glyph>
<glyph name="asciitilde" format="2">
  <advance width="578"/>
  <unicode hex="007E"/>
  <outline>
    <contour>
      <point x="44" y="310" type="line"/>
      <point x="134" y="400" type="line" smooth="yes"/>
      <point x="166" y="432"/>
      <point x="252" y="432"/>
      <point x="284" y="400" type="qcurve" smooth="yes"/>
      <point x="344" y="340" type="line" smooth="yes"/>
      <point x="357" y="327"/>
      <point x="381" y="327"/>
      <point x="394" y="340" type="qcurve" smooth="yes"/>
      <point x="474" y="420" type="line"/>
      <point x="534" y="360" type="line"/>
      <point x="444" y="270" type="line" smooth="yes"/>
      <point x="412" y="238"/>
      <point x="326" y="238"/>
      <point x="294" y="270" type="qcurve" smooth="yes"/>
      <point x="234" y="330" type="line" smooth="yes"/>
      <point x="221" y="343"/>
      <point x="197" y="343"/>
      <point x="184" y="330" type="qcurve" smooth="yes"/>
      <point x="104" y="250" type="line"/>
    </contour>
  </outline>
</glyph>
<glyph name="sterling" format="2">
  <advance width="578"/>
  <unicode hex="00A3"/>
  <outline>
    <contour>
      <point x="61" y="0" type="line"/>
      <point x="61" y="92" type="line"/>
      <point x="150" y="92" type="line"/>
      <point x="150" y="305" type="line"/>
      <point x="61" y="305" type="line"/>
      <point x="61" y="385" type="line"/>
      <point x="150" y="385" type="line"/>
      <point x="150" y="532" type="line" smooth="yes"/>
      <point x="150" y="690"/>
      <point x="308" y="690" type="qcurve" smooth="yes"/>
      <point x="455" y="690" type="line"/>
      <point x="507" y="650" type="line"/>
      <point x="507" y="598" type="line"/>
      <point x="309" y="598" type="line" smooth="yes"/>
      <point x="252" y="598"/>
      <point x="252" y="541" type="qcurve" smooth="yes"/>
      <point x="252" y="385" type="line"/>
      <point x="421" y="385" type="line"/>
      <point x="421" y="305" type="line"/>
      <point x="252" y="305" type="line"/>
      <point x="252" y="92" type="line"/>
      <point x="527" y="92" type="line"/>
      <point x="527" y="0" type="line"/>
    </contour>
  </outline>
</glyph>
<glyph name="currency" format="2">
  <advance width="578"/>
  <unicode hex="00A4"/>
  <outline>
    <contour>
      <point x="54" y="162" type="line"/>
      <point x="132" y="240" type="line"/>
      <point x="132" y="460" type="line"/>
      <point x="54" y="538" type="line"/>
      <point x="106" y="590" type="line"/>
      <point x="184" y="512" type="line"/>
      <point x="394" y="512" type="line"/>
      <point x="472" y="590" type="line"/>
      <point x="524" y="538" type="line"/>
      <point x="446" y="460" type="line"/>
      <point x="446" y="240" type="line"/>
      <point x="524" y="162" type="line"/>
      <point x="472" y="110" type="line"/>
      <point x="394" y="188" type="line"/>
      <point x="184" y="188" type="line"/>
      <point x="106" y="110" type="line"/>
    </contour>
    <contour>
      <point x="209" y="286" type="line" smooth="yes"/>
      <point x="209" y="260"/>
      <point x="235" y="260" type="qcurve" smooth="yes"/>
      <point x="343" y="260" type="line" smooth="yes"/>
      <point x="369" y="260"/>
      <point x="369" y="286" type="qcurve" smooth="yes"/>
      <point x="369" y="414" type="line" smooth="yes"/>
      <point x="369" y="440"/>
      <point x="343" y="440" type="qcurve" smooth="yes"/>
      <point x="235" y="440" type="line" smooth="yes"/>
      <point x="209" y="440"/>
      <point x="209" y="414" type="qcurve" smooth="yes"/>
    </contour>
  </outline>
</glyph>
<glyph name="yen" format="2">
  <advance width="578"/>
  <unicode hex="00A5"/>
  <outline>
    <contour>
      <point x="24" y="669" type="line"/>
      <point x="36" y="690" type="line"/>
      <point x="123" y="690" type="line"/>
      <point x="289" y="378" type="line"/>
      <point x="455" y="690" type="line"/>
      <point x="542" y="690" type="line"/>
      <point x="554" y="669" type="line"/>
      <point x="369" y="327" type="line"/>
      <point x="484" y="327" type="line"/>
      <point x="484" y="256" type="line"/>
      <point x="340" y="256" type="line"/>
      <point x="340" y="184" type="line"/>
      <point x="484" y="184" type="line"/>
      <point x="484" y="113" type="line"/>
      <point x="340" y="113" type="line"/>
      <point x="340" y="0" type="line"/>
      <point x="238" y="0" type="line"/>
      <point x="238" y="113" type="line"/>
      <point x="94" y="113" type="line"/>
      <point x="94" y="184" type="line"/>
      <point x="238" y="184" type="line"/>
      <point x="238" y="256" type="line"/>
      <point x="94" y="256" type="line"/>
      <point x="94" y="327" type="line"/>
      <point x="209" y="327" type="line"/>
    </contour>
  </outline>
</glyph>
<glyph name="section" format="2">
  <advance width="541"/>
  <unicode hex="00A7"/>
  <outline>
    <contour>
      <point x="78" y="-15" type="line"/>
      <point x="308" y="-15" type="line" smooth="yes"/>
      <point x="367" y="-15"/>
      <point x="367" y="45" type="qcurve" smooth="yes"/>
      <point x="367" y="106"/>
      <point x="316" y="115" type="qcurve" smooth="yes"/>
      <point x="199" y="134" type="line" smooth="yes"/>
      <point x="78" y="154"/>
      <point x="78" y="270" type="qcurve" smooth="yes"/>
      <point x="78" y="376" type="line"/>
      <point x="126" y="424" type="line"/>
      <point x="78" y="460"/>
      <point x="78" y="538" type="qcurve" smooth="yes"/>
      <point x="78" y="690"/>
      <point x="231" y="690" type="qcurve" smooth="yes"/>
      <point x="394" y="690" type="line"/>
      <point x="440" y="656" type="line"/>
      <point x="440" y="605" type="line"/>
      <point x="234" y="605" type="line" smooth="yes"/>
      <point x="175" y="605"/>
      <point x="175" y="545" type="qcurve" smooth="yes"/>
      <point x="175" y="484"/>
      <point x="226" y="475" type="qcurve" smooth="yes"/>
      <point x="342" y="456" type="line" smooth="yes"/>
      <point x="464" y="436"/>
      <point x="464" y="320" type="qcurve" smooth="yes"/>
      <point x="464" y="214" type="line"/>
      <point x="416" y="166" type="line"/>
      <point x="464" y="130"/>
      <point x="464" y="52" type="qcurve" smooth="yes"/>
      <point x="464" y="-100"/>
      <point x="310" y="-100" type="qcurve" smooth="yes"/>
      <point x="124" y="-100" type="line"/>
      <point x="78" y="-66" type="line"/>
    </contour>
    <contour>
      <point x="175" y="277" type="line" smooth="yes"/>
      <point x="175" y="223"/>
      <point x="226" y="215" type="qcurve" smooth="yes"/>
      <point x="367" y="191" type="line"/>
      <point x="367" y="313" type="line" smooth="yes"/>
      <point x="367" y="367"/>
      <point x="316" y="375" type="qcurve" smooth="yes"/>
      <point x="175" y="399" type="line"/>
    </contour>
  </outline>
</glyph>
<glyph name="ordfeminine" format="2">
  <advance width="401"/>
  <unicode hex="00AA"/>
  <outline>
    <contour>
      <point x="38" y="405" type="qcurve" smooth="yes"/>
      <point x="38" y="426" type="line" smooth="yes"/>
      <point x="38" y="532"/>
      <point x="145" y="532" type="qcurve" smooth="yes"/>
      <point x="276" y="532" type="line"/>
      <point x="276" y="594" type="line" smooth="yes"/>
      <point x="276" y="620"/>
      <point x="250" y="620" type="qcurve" smooth="yes"/>
      <point x="71" y="620" type="line"/>
      <point x="71" y="661" type="line"/>
      <point x="107" y="690" type="line"/>
      <point x="246" y="690" type="line" smooth="yes"/>
      <point x="353" y="690"/>
      <point x="353" y="583" type="qcurve" smooth="yes"/>
      <point x="353" y="299" type="line"/>
      <point x="145" y="299" type="line" smooth="yes"/>
      <point x="38" y="299"/>
    </contour>
    <contour>
      <point x="115" y="395" type="line" smooth="yes"/>
      <point x="115" y="369"/>
      <point x="141" y="369" type="qcurve" smooth="yes"/>
      <point x="276" y="369" type="line"/>
      <point x="276" y="465" type="line"/>
      <point x="141" y="465" type="line" smooth="yes"/>
      <point x="115" y="465"/>
      <point x="115" y="439" type="qcurve" smooth="yes"/>
    </contour>
  </outline>
</glyph>
<glyph name="logicalnot" format="2">
  <advance width="578"/>
  <unicode hex="00AC"/>
  <outline>
    <contour>
      <point x="63" y="343" type="line"/>
      <point x="63" y="427" type="line"/>
      <point x="515" y="427" type="line"/>
      <point x="515" y="149" type="line"/>
      <point x="426" y="149" type="line"/>
      <point x="426" y="343" type="line"/>
    </contour>
  </outline>
</glyph>
<glyph name="registered" format="2">
  <advance width="841"/>
  <unicode hex="00AE"/>
  <outline>
    <contour>
      <point x="78" y="103" type="qcurve" smooth="yes"/>
      <point x="78" y="587" type="line" smooth="yes"/>
      <point x="78" y="690"/>
      <point x="181" y="690" type="qcurve" smooth="yes"/>
      <point x="660" y="690" type="line" smooth="yes"/>
      <point x="764" y="690"/>
      <point x="764" y="587" type="qcurve" smooth="yes"/>
      <point x="764" y="103" type="line" smooth="yes"/>
      <point x="764" y="0"/>
      <point x="660" y="0" type="qcurve" smooth="yes"/>
      <point x="181" y="0" type="line" smooth="yes"/>
      <point x="78" y="0"/>
    </contour>
    <contour>
      <point x="150" y="92" type="line" smooth="yes"/>
      <point x="150" y="65"/>
      <point x="177" y="65" type="qcurve" smooth="yes"/>
      <point x="664" y="65" type="line" smooth="yes"/>
      <point x="691" y="65"/>
      <point x="691" y="92" type="qcurve" smooth="yes"/>
      <point x="691" y="598" type="line" smooth="yes"/>
      <point x="691" y="625"/>
      <point x="664" y="625" type="qcurve" smooth="yes"/>
      <point x="177" y="625" type="line" smooth="yes"/>
      <point x="150" y="625"/>
      <point x="150" y="598" type="qcurve" smooth="yes"/>
    </contour>
    <contour>
      <point x="277" y="152" type="line"/>
      <point x="277" y="538" type="line"/>
      <point x="464" y="538" type="line" smooth="yes"/>
      <point x="571" y="538"/>
      <point x="571" y="431" type="qcurve" smooth="yes"/>
      <point x="571" y="394" type="line" smooth="yes"/>
      <point x="571" y="317"/>
      <point x="515" y="296" type="qcurve"/>
      <point x="579" y="170" type="line"/>
      <point x="570" y="152" type="line"/>
      <point x="504" y="152" type="line"/>
      <point x="435" y="288" type="line"/>
      <point x="354" y="288" type="line"/>
      <point x="354" y="152" type="line"/>
    </contour>
    <contour>
      <point x="354" y="358" type="line"/>
      <point x="468" y="358" type="line" smooth="yes"/>
      <point x="494" y="358"/>
      <point x="494" y="384" type="qcurve" smooth="yes"/>
      <point x="494" y="442" type="line" smooth="yes"/>
      <point x="494" y="468"/>
      <point x="468" y="468" type="qcurve" smooth="yes"/>
      <point x="354" y="468" type="line"/>
    </contour>
  </outline>
</glyph>
<glyph name="degree" format="2">
  <advance width="411"/>
  <unicode hex="00B0"/>
  <outline>
    <contour>
      <point x="58" y="473" type="qcurve" smooth="yes"/>
      <point x="58" y="587" type="line" smooth="yes"/>
      <point x="58" y="690"/>
      <point x="161" y="690" type="qcurve" smooth="yes"/>
      <point x="250" y="690" type="line" smooth="yes"/>
      <point x="353" y="690"/>
      <point x="353" y="587" type="qcurve" smooth="yes"/>
      <point x="353" y="473" type="line" smooth="yes"/>
      <point x="353" y="370"/>
      <point x="250" y="370" type="qcurve" smooth="yes"/>
      <point x="161" y="370" type="line" smooth="yes"/>
      <point x="58" y="370"/>
    </contour>
    <contour>
      <point x="130" y="462" type="line" smooth="yes"/>
      <point x="130" y="435"/>
      <point x="157" y="435" type="qcurve" smooth="yes"/>
      <point x="253" y="435" type="line" smooth="yes"/>
      <point x="280" y="435"/>
      <point x="280" y="462" type="qcurve" smooth="yes"/>
      <point x="280" y="598" type="line" smooth="yes"/>
      <point x="280" y="625"/>
      <point x="253" y="625" type="qcurve" smooth="yes"/>
      <point x="157" y="625" type="line" smooth="yes"/>
      <point x="130" y="625"/>
      <point x="130" y="598" type="qcurve" smooth="yes"/>
    </contour>
  </outline>
</glyph>
<glyph name="uni00B2" format="2">
  <advance width="362"/>
  <unicode hex="00B2"/>
  <outline>
    <contour>
      <point x="38" y="278" type="line"/>
      <point x="38" y="404" type="line" smooth="yes"/>
      <point x="38" y="488"/>
      <point x="118" y="504" type="qcurve" smooth="yes"/>
      <point x="220" y="525" type="line" smooth="yes"/>
      <point x="246" y="530"/>
      <point x="246" y="556" type="qcurve" smooth="yes"/>
      <point x="246" y="594" type="line" smooth="yes"/>
      <point x="246" y="620"/>
      <point x="220" y="620" type="qcurve" smooth="yes"/>
      <point x="50" y="620" type="line"/>
      <point x="50" y="661" type="line"/>
      <point x="87" y="690" type="line"/>
      <point x="217" y="690" type="line" smooth="yes"/>
      <point x="324" y="690"/>
      <point x="324" y="583" type="qcurve" smooth="yes"/>
      <point x="324" y="557" type="line" smooth="yes"/>
      <point x="324" y="472"/>
      <point x="244" y="456" type="qcurve" smooth="yes"/>
      <point x="142" y="436" type="line" smooth="yes"/>
      <point x="115" y="431"/>
      <point x="115" y="405" type="qcurve" smooth="yes"/>
      <point x="115" y="348" type="line"/>
      <point x="324" y="348" type="line"/>
      <point x="324" y="278" type="line"/>
    </contour>
  </outline>
</glyph>
<glyph name="paragraph" format="2">
  <advance width="602"/>
  <unicode hex="00B6"/>
  <outline>
    <contour>
      <point x="68" y="381" type="qcurve" smooth="yes"/>
      <point x="68" y="540" type="line" smooth="yes"/>
      <point x="68" y="690"/>
      <point x="218" y="690" type="qcurve" smooth="yes"/>
      <point x="337" y="690" type="line"/>
      <point x="337" y="231" type="line"/>
      <point x="218" y="231" type="line" smooth="yes"/>
      <point x="68" y="231"/>
    </contour>
    <contour>
      <point x="407" y="-170" type="line"/>
      <point x="407" y="690" type="line"/>
      <point x="504" y="690" type="line"/>
      <point x="504" y="-170" type="line"/>
    </contour>
  </outline>
</glyph>
<glyph name="Oslash" format="2">
  <advance width="702"/>
  <unicode hex="00D8"/>
  <outline>
    <contour>
      <point x="78" y="158" type="qcurve" smooth="yes"/>
      <point x="78" y="532" type="line" smooth="yes"/>
      <point x="78" y="690"/>
      <point x="235" y="690" type="qcurve" smooth="yes"/>
      <point x="467" y="690" type="line" smooth="yes"/>
      <point x="625" y="690"/>
      <point x="625" y="532" type="qcurve" smooth="yes"/>
      <point x="625" y="158" type="line" smooth="yes"/>
      <point x="625" y="0"/>
      <point x="467" y="0" type="qcurve" smooth="yes"/>
      <point x="235" y="0" type="line" smooth="yes"/>
      <point x="78" y="0"/>
    </contour>
    <contour>
      <point x="180" y="241" type="line"/>
      <point x="522" y="550" type="line"/>
      <point x="518" y="598"/>
      <point x="466" y="598" type="qcurve" smooth="yes"/>
      <point x="236" y="598" type="line" smooth="yes"/>
      <point x="180" y="598"/>
      <point x="180" y="541" type="qcurve" smooth="yes"/>
    </contour>
    <contour>
      <point x="181" y="140" type="line"/>
      <point x="184" y="92"/>
      <point x="236" y="92" type="qcurve" smooth="yes"/>
      <point x="466" y="92" type="line" smooth="yes"/>
      <point x="523" y="92"/>
      <point x="523" y="149" type="qcurve" smooth="yes"/>
      <point x="523" y="449" type="line"/>
    </contour>
  </outline>
</glyph>
<glyph name="germandbls" format="2">
  <advance width="607"/>
  <unicode hex="00DF"/>
  <outline>
    <contour>
      <point x="78" y="0" type="line"/>
      <point x="78" y="586" type="line" smooth="yes"/>
      <point x="78" y="740"/>
      <point x="231" y="740" type="qcurve" smooth="yes"/>
      <point x="364" y="740" type="line" smooth="yes"/>
      <point x="518" y="740"/>
      <point x="518" y="586" type="qcurve" smooth="yes"/>
      <point x="518" y="491" type="line" smooth="yes"/>
      <point x="518" y="457"/>
      <point x="498" y="433" type="qcurve" smooth="yes"/>
      <point x="463" y="391" type="line"/>
      <point x="505" y="356" type="line" smooth="yes"/>
      <point x="538" y="328"/>
      <point x="538" y="276" type="qcurve" smooth="yes"/>
      <point x="538" y="154" type="line" smooth="yes"/>
      <point x="538" y="0"/>
      <point x="384" y="0" type="qcurve" smooth="yes"/>
      <point x="303" y="0" type="line"/>
      <point x="257" y="34" type="line"/>
      <point x="257" y="85" type="line"/>
      <point x="382" y="85" type="line" smooth="yes"/>
      <point x="440" y="85"/>
      <point x="440" y="144" type="qcurve" smooth="yes"/>
      <point x="440" y="284" type="line" smooth="yes"/>
      <point x="440" y="342"/>
      <point x="382" y="342" type="qcurve" smooth="yes"/>
      <point x="267" y="342" type="line"/>
      <point x="267" y="428" type="line"/>
      <point x="362" y="428" type="line" smooth="yes"/>
      <point x="420" y="428"/>
      <point x="420" y="486" type="qcurve" smooth="yes"/>
      <point x="420" y="596" type="line" smooth="yes"/>
      <point x="420" y="655"/>
      <point x="362" y="655" type="qcurve" smooth="yes"/>
      <point x="234" y="655" type="line" smooth="yes"/>
      <point x="175" y="655"/>
      <point x="175" y="596" type="qcurve" smooth="yes"/>
      <point x="175" y="0" type="line"/>
    </contour>
  </outline>
</glyph>
<glyph name="divide" format="2">
  <advance width="578"/>
  <unicode hex="00F7"/>
  <outline>
    <contour>
      <point x="63" y="293" type="line"/>
      <point x="63" y="377" type="line"/>
      <point x="515" y="377" type="line"/>
      <point x="515" y="293" type="line"/>
    </contour>
    <contour>
      <point x="240" y="96" type="line"/>
      <point x="240" y="194" type="line"/>
      <point x="338" y="194" type="line"/>
      <point x="338" y="96" type="line"/>
    </contour>
    <contour>
      <point x="240" y="476" type="line"/>
      <point x="240" y="574" type="line"/>
      <point x="338" y="574" type="line"/>
      <point x="338" y="476" type="line"/>
    </contour>
  </outline>
</glyph>
<glyph name="oslash" format="2">
  <advance width="586"/>
  <unicode hex="00F8"/>
  <outline>
    <contour>
      <point x="70" y="154" type="qcurve" smooth="yes"/>
      <point x="70" y="369" type="line" smooth="yes"/>
      <point x="70" y="522"/>
      <point x="223" y="522" type="qcurve" smooth="yes"/>
      <point x="363" y="522" type="line" smooth="yes"/>
      <point x="517" y="522"/>
      <point x="517" y="369" type="qcurve" smooth="yes"/>
      <point x="517" y="154" type="line" smooth="yes"/>
      <point x="517" y="0"/>
      <point x="363" y="0" type="qcurve" smooth="yes"/>
      <point x="223" y="0" type="line" smooth="yes"/>
      <point x="70" y="0"/>
    </contour>
    <contour>
      <point x="167" y="195" type="line"/>
      <point x="410" y="414" type="line"/>
      <point x="396" y="437"/>
      <point x="361" y="437" type="qcurve" smooth="yes"/>
      <point x="226" y="437" type="line" smooth="yes"/>
      <point x="167" y="437"/>
      <point x="167" y="379" type="qcurve" smooth="yes"/>
    </contour>
    <contour>
      <point x="176" y="108" type="line"/>
      <point x="190" y="85"/>
      <point x="226" y="85" type="qcurve" smooth="yes"/>
      <point x="361" y="85" type="line" smooth="yes"/>
      <point x="419" y="85"/>
      <point x="419" y="144" type="qcurve" smooth="yes"/>
      <point x="419" y="327" type="line"/>
    </contour>
  </outline>
</glyph>
<glyph name="Lslash" format="2">
  <advance width="554"/>
  <unicode hex="0141"/>
  <outline>
    <contour>
      <point x="10" y="289" type="line"/>
      <point x="103" y="342" type="line"/>
      <point x="103" y="690" type="line"/>
      <point x="205" y="690" type="line"/>
      <point x="205" y="401" type="line"/>
      <point x="335" y="476" type="line"/>
      <point x="375" y="407" type="line"/>
      <point x="205" y="310" type="line"/>
      <point x="205" y="92" type="line"/>
      <point x="530" y="92" type="line"/>
      <point x="530" y="0" type="line"/>
      <point x="103" y="0" type="line"/>
      <point x="103" y="251" type="line"/>
      <point x="50" y="220" type="line"/>
    </contour>
  </outline>
</glyph>
<glyph name="lslash" format="2">
  <advance width="293"/>
  <unicode hex="0142"/>
  <outline>
    <contour>
      <point x="0" y="339" type="line"/>
      <point x="86" y="388" type="line"/>
      <point x="86" y="740" type="line"/>
      <point x="183" y="740" type="line"/>
      <point x="183" y="444" type="line"/>
      <point x="254" y="486" type="line"/>
      <point x="291" y="420" type="line"/>
      <point x="183" y="359" type="line"/>
      <point x="183" y="147" type="line" smooth="yes"/>
      <point x="183" y="81"/>
      <point x="252" y="76" type="qcurve"/>
      <point x="252" y="-9" type="line"/>
      <point x="86" y="-9"/>
      <point x="86" y="157" type="qcurve" smooth="yes"/>
      <point x="86" y="302" type="line"/>
      <point x="38" y="274" type="line"/>
    </contour>
  </outline>
</glyph>
<glyph name="oe" format="2">
  <advance width="912"/>
  <unicode hex="0153"/>
  <outline>
    <contour>
      <point x="70" y="154" type="qcurve" smooth="yes"/>
      <point x="70" y="369" type="line" smooth="yes"/>
      <point x="70" y="522"/>
      <point x="223" y="522" type="qcurve" smooth="yes"/>
      <point x="351" y="522" type="line" smooth="yes"/>
      <point x="421" y="522"/>
      <point x="461" y="482" type="qcurve"/>
      <point x="501" y="522"/>
      <point x="571" y="522" type="qcurve" smooth="yes"/>
      <point x="689" y="522" type="line" smooth="yes"/>
      <point x="843" y="522"/>
      <point x="843" y="369" type="qcurve" smooth="yes"/>
      <point x="843" y="221" type="line"/>
      <point x="510" y="221" type="line"/>
      <point x="510" y="144" type="line" smooth="yes"/>
      <point x="510" y="85"/>
      <point x="568" y="85" type="qcurve" smooth="yes"/>
      <point x="823" y="85" type="line"/>
      <point x="823" y="34" type="line"/>
      <point x="777" y="0" type="line"/>
      <point x="571" y="0" type="line" smooth="yes"/>
      <point x="501" y="0"/>
      <point x="461" y="40" type="qcurve"/>
      <point x="421" y="0"/>
      <point x="351" y="0" type="qcurve" smooth="yes"/>
      <point x="223" y="0" type="line" smooth="yes"/>
      <point x="70" y="0"/>
    </contour>
    <contour>
      <point x="167" y="144" type="line" smooth="yes"/>
      <point x="167" y="85"/>
      <point x="226" y="85" type="qcurve" smooth="yes"/>
      <point x="354" y="85" type="line" smooth="yes"/>
      <point x="412" y="85"/>
      <point x="412" y="144" type="qcurve" smooth="yes"/>
      <point x="412" y="379" type="line" smooth="yes"/>
      <point x="412" y="437"/>
      <point x="354" y="437" type="qcurve" smooth="yes"/>
      <point x="226" y="437" type="line" smooth="yes"/>
      <point x="167" y="437"/>
      <point x="167" y="379" type="qcurve" smooth="yes"/>
    </contour>
    <contour>
      <point x="510" y="303" type="line"/>
      <point x="745" y="303" type="line"/>
      <point x="745" y="379" type="line" smooth="yes"/>
      <point x="745" y="437"/>
      <point x="687" y="437" type="qcurve" smooth="yes"/>
      <point x="568" y="437" type="line" smooth="yes"/>
      <point x="510" y="437"/>
      <point x="510" y="379" type="qcurve" smooth="yes"/>
    </contour>
  </outline>
</glyph>
<glyph name="uni0301" format="2">
  <advance width="0"/>
  <unicode hex="0301"/>
  <outline>
    <contour>
      <point x="-356" y="621" type="line"/>
      <point x="-225" y="769" type="line"/>
      <point x="-166" y="714" type="line"/>
      <point x="-306" y="573" type="line"/>
    </contour>
  </outline>
</glyph>
<glyph name="uni0306" format="2">
  <advance width="0"/>
  <unicode hex="0306"/>
  <outline>
    <contour>
      <point x="-416" y="673" type="qcurve" smooth="yes"/>
      <point x="-416" y="733" type="line"/>
      <point x="-354" y="733" type="line"/>
      <point x="-354" y="674" type="line" smooth="yes"/>
      <point x="-354" y="659"/>
      <point x="-339" y="659" type="qcurve" smooth="yes"/>
      <point x="-235" y="659" type="line" smooth="yes"/>
      <point x="-220" y="659"/>
      <point x="-220" y="674" type="qcurve" smooth="yes"/>
      <point x="-220" y="733" type="line"/>
      <point x="-158" y="733" type="line"/>
      <point x="-158" y="673" type="line" smooth="yes"/>
      <point x="-158" y="597"/>
      <point x="-234" y="597" type="qcurve" smooth="yes"/>
      <point x="-340" y="597" type="line" smooth="yes"/>
      <point x="-416" y="597"/>
    </contour>
  </outline>
</glyph>
<glyph name="uni0308" format="2">
  <advance width="0"/>
  <unicode hex="0308"/>
  <outline>
    <contour>
      <point x="-426" y="611" type="line"/>
      <point x="-426" y="710" type="line"/>
      <point x="-334" y="710" type="line"/>
      <point x="-334" y="611" type="line"/>
    </contour>
    <contour>
      <point x="-240" y="611" type="line"/>
      <point x="-240" y="710" type="line"/>
      <point x="-148" y="710" type="line"/>
      <point x="-148" y="611" type="line"/>
    </contour>
  </outline>
</glyph>
<glyph name="uni030A" format="2">
  <advance width="0"/>
  <unicode hex="030A"/>
  <outline>
    <contour>
      <point x="-393" y="644" type="qcurve" smooth="yes"/>
      <point x="-393" y="701" type="line" smooth="yes"/>
      <point x="-393" y="774"/>
      <point x="-320" y="774" type="qcurve" smooth="yes"/>
      <point x="-254" y="774" type="line" smooth="yes"/>
      <point x="-181" y="774"/>
      <point x="-181" y="701" type="qcurve" smooth="yes"/>
      <point x="-181" y="644" type="line" smooth="yes"/>
      <point x="-181" y="571"/>
      <point x="-254" y="571" type="qcurve" smooth="yes"/>
      <point x="-320" y="571" type="line" smooth="yes"/>
      <point x="-393" y="571"/>
    </contour>
    <contour>
      <point x="-334" y="640" type="line" smooth="yes"/>
      <point x="-334" y="624"/>
      <point x="-317" y="624" type="qcurve" smooth="yes"/>
      <point x="-257" y="624" type="line" smooth="yes"/>
      <point x="-241" y="624"/>
      <point x="-241" y="640" type="qcurve" smooth="yes"/>
      <point x="-241" y="705" type="line" smooth="yes"/>
      <point x="-241" y="721"/>
      <point x="-257" y="721" type="qcurve" smooth="yes"/>
      <point x="-317" y="721" type="line" smooth="yes"/>
      <point x="-334" y="721"/>
      <point x="-334" y="705" type="qcurve" smooth="yes"/>
    </contour>
  </outline>
</glyph>
<glyph name="uni030C" format="2">
  <advance width="0"/>
  <unicode hex="030C"/>
  <outline>
    <contour>
      <point x="-431" y="712" type="line"/>
      <point x="-386" y="759" type="line"/>
      <point x="-287" y="666" type="line"/>
      <point x="-188" y="759" type="line"/>
      <point x="-144" y="712" type="line"/>
      <point x="-287" y="571" type="line"/>
    </contour>
  </outline>
</glyph>
<glyph name="uni1E9E" format="2">
  <advance width="689"/>
  <unicode hex="1E9E"/>
  <outline>
    <contour>
      <point x="82" y="0" type="line"/>
      <point x="82" y="532" type="line" smooth="yes"/>
      <point x="82" y="690"/>
      <point x="239" y="690" type="qcurve" smooth="yes"/>
      <point x="569" y="690" type="line"/>
      <point x="569" y="610" type="line"/>
      <point x="417" y="406" type="line"/>
      <point x="474" y="406" type="line" smooth="yes"/>
      <point x="632" y="406"/>
      <point x="632" y="248" type="qcurve" smooth="yes"/>
      <point x="632" y="158" type="line" smooth="yes"/>
      <point x="632" y="0"/>
      <point x="474" y="0" type="qcurve" smooth="yes"/>
      <point x="330" y="0" type="line"/>
      <point x="278" y="40" type="line"/>
      <point x="278" y="92" type="line"/>
      <point x="473" y="92" type="line" smooth="yes"/>
      <point x="530" y="92"/>
      <point x="530" y="149" type="qcurve" smooth="yes"/>
      <point x="530" y="257" type="line" smooth="yes"/>
      <point x="530" y="314"/>
      <point x="473" y="314" type="qcurve" smooth="yes"/>
      <point x="295" y="314" type="line"/>
      <point x="295" y="394" type="line"/>
      <point x="447" y="598" type="line"/>
      <point x="240" y="598" type="line" smooth="yes"/>
      <point x="184" y="598"/>
      <point x="184" y="541" type="qcurve" smooth="yes"/>
      <point x="184" y="0" type="line"/>
    </contour>
  </outline>
</glyph>
<glyph name="endash" format="2">
  <advance width="580"/>
  <unicode hex="2013"/>
  <outline>
    <contour>
      <point x="40" y="263" type="line"/>
      <point x="40" y="347" type="line"/>
      <point x="540" y="347" type="line"/>
      <point x="540" y="263" type="line"/>
    </contour>
  </outline>
</glyph>
<glyph name="daggerdbl" format="2">
  <advance width="492"/>
  <unicode hex="2021"/>
  <outline>
    <contour>
      <point x="50" y="93" type="line"/>
      <point x="50" y="177" type="line"/>
      <point x="202" y="177" type="line"/>
      <point x="202" y="413" type="line"/>
      <point x="50" y="413" type="line"/>
      <point x="50" y="497" type="line"/>
      <point x="202" y="497" type="line"/>
      <point x="202" y="690" type="line"/>
      <point x="291" y="690" type="line"/>
      <point x="291" y="497" type="line"/>
      <point x="442" y="497" type="line"/>
      <point x="442" y="413" type="line"/>
      <point x="291" y="413" type="line"/>
      <point x="291" y="177" type="line"/>
      <point x="442" y="177" type="line"/>
      <point x="442" y="93" type="line"/>
      <point x="291" y="93" type="line"/>
      <point x="291" y="-100" type="line"/>
      <point x="202" y="-100" type="line"/>
      <point x="202" y="93" type="line"/>
    </contour>
  </outline>
</glyph>
<glyph name="fraction" format="2">
  <advance width="143"/>
  <unicode hex="2044"/>
  <outline>
    <contour>
      <point x="-130" y="33" type="line"/>
      <point x="200" y="693" type="line"/>
      <point x="272" y="657" type="line"/>
      <point x="-58" y="-3" type="line"/>
    </contour>
  </outline>
</glyph>
<glyph name="uni2074" format="2">
  <advance width="362"/>
  <unicode hex="2074"/>
  <outline>
    <contour>
      <point x="38" y="344" type="line"/>
      <point x="38" y="408" type="line"/>
      <point x="168" y="690" type="line"/>
      <point x="236" y="690" type="line"/>
      <point x="246" y="674" type="line"/>
      <point x="125" y="414" type="line"/>
      <point x="246" y="414" type="line"/>
      <point x="246" y="535" type="line"/>
      <point x="324" y="535" type="line"/>
      <point x="324" y="278" type="line"/>
      <point x="246" y="278" type="line"/>
      <point x="246" y="344" type="line"/>
    </contour>
  </outline>
</glyph>
<glyph name="Euro" format="2">
  <advance width="578"/>
  <unicode hex="20AC"/>
  <outline>
    <contour>
      <point x="31" y="238" type="line"/>
      <point x="31" y="309" type="line"/>
      <point x="100" y="309" type="line"/>
      <point x="100" y="381" type="line"/>
      <point x="31" y="381" type="line"/>
      <point x="31" y="452" type="line"/>
      <point x="100" y="452" type="line"/>
      <point x="100" y="532" type="line" smooth="yes"/>
      <point x="100" y="690"/>
      <point x="258" y="690" type="qcurve" smooth="yes"/>
      <point x="485" y="690" type="line"/>
      <point x="537" y="650" type="line"/>
      <point x="537" y="598" type="line"/>
      <point x="259" y="598" type="line" smooth="yes"/>
      <point x="202" y="598"/>
      <point x="202" y="541" type="qcurve" smooth="yes"/>
      <point x="202" y="452" type="line"/>
      <point x="463" y="452" type="line"/>
      <point x="463" y="381" type="line"/>
      <point x="202" y="381" type="line"/>
      <point x="202" y="309" type="line"/>
      <point x="419" y="309" type="line"/>
      <point x="419" y="238" type="line"/>
      <point x="202" y="238" type="line"/>
      <point x="202" y="149" type="line" smooth="yes"/>
      <point x="202" y="92"/>
      <point x="259" y="92" type="qcurve" smooth="yes"/>
      <point x="537" y="92" type="line"/>
      <point x="537" y="40" type="line"/>
      <point x="485" y="0" type="line"/>
      <point x="258" y="0" type="line" smooth="yes"/>
      <point x="100" y="0"/>
      <point x="100" y="158" type="qcurve" smooth="yes"/>
      <point x="100" y="238" type="line"/>
    </contour>
  </outline>
</glyph>
<glyph name="uni20BD" format="2">
  <advance width="578"/>
  <unicode hex="20BD"/>
  <outline>
    <contour>
      <point x="40" y="155" type="line"/>
      <point x="40" y="236" type="line"/>
      <point x="90" y="236" type="line"/>
      <point x="90" y="302" type="line"/>
      <point x="40" y="302" type="line"/>
      <point x="40" y="388" type="line"/>
      <point x="90" y="388" type="line"/>
      <point x="90" y="690" type="line"/>
      <point x="370" y="690" type="line" smooth="yes"/>
      <point x="528" y="690"/>
      <point x="528" y="532" type="qcurve" smooth="yes"/>
      <point x="528" y="460" type="line" smooth="yes"/>
      <point x="528" y="302"/>
      <point x="370" y="302" type="qcurve" smooth="yes"/>
      <point x="192" y="302" type="line"/>
      <point x="192" y="236" type="line"/>
      <point x="402" y="236" type="line"/>
      <point x="402" y="155" type="line"/>
      <point x="192" y="155" type="line"/>
      <point x="192" y="0" type="line"/>
      <point x="90" y="0" type="line"/>
      <point x="90" y="155" type="line"/>
    </contour>
    <contour>
      <point x="192" y="388" type="line"/>
      <point x="369" y="388" type="line" smooth="yes"/>
      <point x="426" y="388"/>
      <point x="426" y="444" type="qcurve" smooth="yes"/>
      <point x="426" y="541" type="line" smooth="yes"/>
      <point x="426" y="598"/>
      <point x="369" y="598" type="qcurve" smooth="yes"/>
      <point x="192" y="598" type="line"/>
    </contour>
  </outline>
</glyph>
<glyph name="Omega" format="2">
  <advance width="702"/>
  <unicode hex="2126"/>
  <outline>
    <contour>
      <point x="58" y="0" type="line"/>
      <point x="58" y="92" type="line"/>
      <point x="170" y="92" type="line"/>
      <point x="112" y="171" type="line" smooth="yes"/>
      <point x="78" y="216"/>
      <point x="78" y="274" type="qcurve" smooth="yes"/>
      <point x="78" y="532" type="line" smooth="yes"/>
      <point x="78" y="690"/>
      <point x="235" y="690" type="qcurve" smooth="yes"/>
      <point x="467" y="690" type="line" smooth="yes"/>
      <point x="625" y="690"/>
      <point x="625" y="532" type="qcurve" smooth="yes"/>
      <point x="625" y="274" type="line" smooth="yes"/>
      <point x="625" y="216"/>
      <point x="591" y="171" type="qcurve" smooth="yes"/>
      <point x="532" y="92" type="line"/>
      <point x="645" y="92" type="line"/>
      <point x="645" y="0" type="line"/>
      <point x="408" y="0" type="line"/>
      <point x="408" y="81" type="line"/>
      <point x="502" y="206" type="line" smooth="yes"/>
      <point x="523" y="234"/>
      <point x="523" y="271" type="qcurve" smooth="yes"/>
      <point x="523" y="541" type="line" smooth="yes"/>
      <point x="523" y="598"/>
      <point x="466" y="598" type="qcurve" smooth="yes"/>
      <point x="236" y="598" type="line" smooth="yes"/>
      <point x="180" y="598"/>
      <point x="180" y="541" type="qcurve" smooth="yes"/>
      <point x="180" y="271" type="line" smooth="yes"/>
      <point x="180" y="234"/>
      <point x="201" y="206" type="qcurve" smooth="yes"/>
      <point x="295" y="81" type="line"/>
      <point x="295" y="0" type="line"/>
    </contour>
  </outline>
</glyph>
<glyph name="minus" format="2">
  <advance width="578"/>
  <unicode hex="2212"/>
  <outline>
    <contour>
      <point x="63" y="293" type="line"/>
      <point x="63" y="377" type="line"/>
      <point x="515" y="377" type="line"/>
      <point x="515" y="293" type="line"/>
    </contour>
  </outline>
</glyph>
<glyph name="radical" format="2">
  <advance width="590"/>
  <unicode hex="221A"/>
  <outline>
    <contour>
      <point x="20" y="326" type="line"/>
      <point x="20" y="400" type="line"/>
      <point x="177" y="400" type="line"/>
      <point x="276" y="103" type="line"/>
      <point x="514" y="792" type="line"/>
      <point x="589" y="766" type="line"/>
      <point x="318" y="-10" type="line"/>
      <point x="229" y="-10" type="line"/>
      <point x="114" y="326" type="line"/>
    </contour>
  </outline>
</glyph>
<glyph name="lessequal" format="2">
  <advance width="578"/>
  <unicode hex="2264"/>
  <outline>
    <contour>
      <point x="63" y="0" type="line"/>
      <point x="63" y="84" type="line"/>
      <point x="515" y="84" type="line"/>
      <point x="515" y="0" type="line"/>
    </contour>
    <contour>
      <point x="64" y="324" type="line"/>
      <point x="64" y="418" type="line"/>
      <point x="481" y="618" type="line"/>
      <point x="517" y="542" type="line"/>
      <point x="152" y="371" type="line"/>
      <point x="517" y="200" type="line"/>
      <point x="481" y="125" type="line"/>
    </contour>
  </outline>
</glyph>
<glyph name="greaterequal" format="2">
  <advance width="578"/>
  <unicode hex="2265"/>
  <outline>
    <contour>
      <point x="63" y="0" type="line"/>
      <point x="63" y="84" type="line"/>
      <point x="515" y="84" type="line"/>
      <point x="515" y="0" type="line"/>
    </contour>
    <contour>
      <point x="61" y="200" type="line"/>
      <point x="426" y="371" type="line"/>
      <point x="61" y="542" type="line"/>
      <point x="97" y="618" type="line"/>
      <point x="514" y="418" type="line"/>
      <point x="514" y="324" type="line"/>
      <point x="97" y="125" type="line"/>
    </contour>
  </outline>
</glyph>
<glyph name="lozenge" format="2">
  <advance width="578"/>
  <unicode hex="25CA"/>
  <outline>
    <contour>
      <point x="46" y="345" type="line"/>
      <point x="244" y="690" type="line"/>
      <point x="334" y="690" type="line"/>
      <point x="532" y="345" type="line"/>
      <point x="334" y="0" type="line"/>
      <point x="244" y="0" type="line"/>
    </contour>
    <contour>
      <point x="136" y="345" type="line"/>
      <point x="289" y="77" type="line"/>
      <point x="442" y="345" type="line"/>
      <point x="289" y="613" type="line"/>
    </contour>
  </outline>
</glyph>
<glyph name=".notdef" format="2">
  <advance width="588"/>
  <outline>
    <contour>
      <point x="90" y="0" type="line"/>
      <point x="90" y="740" type="line"/>
      <point x="499" y="740" type="line"/>
      <point x="499" y="0" type="line"/>
    </contour>
    <contour>
      <point x="149" y="59" type="line"/>
      <point x="440" y="59" type="line"/>
      <point x="440" y="681" type="line"/>
      <point x="149" y="681" type="line"/>
    </contour>
  </outline>
</glyph>
<glyph name="uni0300.cap" format="2">
  <advance width="0"/>
  <outline>
    <contour>
      <point x="-444" y="871" type="line"/>
      <point x="-385" y="927" type="line"/>
      <point x="-254" y="778" type="line"/>
      <point x="-304" y="731" type="line"/>
    </contour>
  </outline>
</glyph>
<glyph name="uni0301.cap" format="2">
  <advance width="0"/>
  <outline>
    <contour>
      <point x="-392" y="778" type="line"/>
      <point x="-261" y="927" type="line"/>
      <point x="-202" y="871" type="line"/>
      <point x="-342" y="731" type="line"/>
    </contour>
  </outline>
</glyph>
<glyph name="uni0303.cap" format="2">
  <advance width="0"/>
  <outline>
    <contour>
      <point x="-485" y="800" type="line"/>
      <point x="-426" y="859" type="line" smooth="yes"/>
      <point x="-405" y="880"/>
      <point x="-343" y="880"/>
      <point x="-322" y="859" type="qcurve" smooth="yes"/>
      <point x="-285" y="822" type="line" smooth="yes"/>
      <point x="-278" y="815"/>
      <point x="-264" y="815"/>
      <point x="-257" y="822" type="qcurve" smooth="yes"/>
      <point x="-205" y="874" type="line"/>
      <point x="-160" y="829" type="line"/>
      <point x="-219" y="770" type="line" smooth="yes"/>
      <point x="-240" y="749"/>
      <point x="-302" y="749"/>
      <point x="-323" y="770" type="qcurve" smooth="yes"/>
      <point x="-360" y="807" type="line" smooth="yes"/>
      <point x="-367" y="814"/>
      <point x="-381" y="814"/>
      <point x="-388" y="807" type="qcurve" smooth="yes"/>
      <point x="-440" y="755" type="line"/>
    </contour>
  </outline>
</glyph>
<glyph name="uni0304.cap" format="2">
  <advance width="0"/>
  <outline>
    <contour>
      <point x="-458" y="780" type="line"/>
      <point x="-458" y="854" type="line"/>
      <point x="-188" y="854" type="line"/>
      <point x="-188" y="780" type="line"/>
    </contour>
  </outline>
</glyph>
<glyph name="uni030A.cap" format="2">
  <advance width="0"/>
  <outline>
    <contour>
      <point x="-429" y="802" type="qcurve" smooth="yes"/>
      <point x="-429" y="858" type="line" smooth="yes"/>
      <point x="-429" y="931"/>
      <point x="-356" y="931" type="qcurve" smooth="yes"/>
      <point x="-290" y="931" type="line" smooth="yes"/>
      <point x="-217" y="931"/>
      <point x="-217" y="858" type="qcurve" smooth="yes"/>
      <point x="-217" y="802" type="line" smooth="yes"/>
      <point x="-217" y="729"/>
      <point x="-290" y="729" type="qcurve" smooth="yes"/>
      <point x="-356" y="729" type="line" smooth="yes"/>
      <point x="-429" y="729"/>
    </contour>
    <contour>
      <point x="-369" y="798" type="line" smooth="yes"/>
      <point x="-369" y="781"/>
      <point x="-353" y="781" type="qcurve" smooth="yes"/>
      <point x="-293" y="781" type="line" smooth="yes"/>
      <point x="-277" y="781"/>
      <point x="-277" y="798" type="qcurve" smooth="yes"/>
      <point x="-277" y="862" type="line" smooth="yes"/>
      <point x="-277" y="879"/>
      <point x="-293" y="879" type="qcurve" smooth="yes"/>
      <point x="-353" y="879" type="line" smooth="yes"/>
      <point x="-369" y="879"/>
      <point x="-369" y="862" type="qcurve" smooth="yes"/>
    </contour>
  </outline>
</glyph>
<glyph name="uni030B.cap" format="2">
  <advance width="0"/>
  <outline>
    <contour>
      <point x="-462" y="773" type="line"/>
      <point x="-349" y="927" type="line"/>
      <point x="-286" y="878" type="line"/>
      <point x="-410" y="731" type="line"/>
    </contour>
    <contour>
      <point x="-291" y="773" type="line"/>
      <point x="-178" y="927" type="line"/>
      <point x="-116" y="878" type="line"/>
      <point x="-239" y="731" type="line"/>
    </contour>
  </outline>
</glyph>
<glyph name="uni030C.cap" format="2">
  <advance width="0"/>
  <outline>
    <contour>
      <point x="-467" y="870" type="line"/>
      <point x="-422" y="917" type="line"/>
      <point x="-323" y="823" type="line"/>
      <point x="-224" y="917" type="line"/>
      <point x="-179" y="870" type="line"/>
      <point x="-323" y="729" type="line"/>
    </contour>
  </outline>
</glyph>
